<?xml version="1.0" encoding="utf-8"?>
<!-- Generator: Adobe Illustrator 26.4.1, SVG Export Plug-In . SVG Version: 6.00 Build 0)  -->
<svg version="1.1" id="Capa_1" xmlns="http://www.w3.org/2000/svg" xmlns:xlink="http://www.w3.org/1999/xlink" x="0px" y="0px"
	 viewBox="0 0 235.4 47.2" style="enable-background:new 0 0 235.4 47.2;" xml:space="preserve">
<style type="text/css">
	.st0{fill:#1565C0;}
	.st1{fill:#2196F3;}
	.st2{fill:#10519D;}
	.st3{fill:url(#SVGID_1_);}
	.st4{fill:#FFFFFF;stroke:#2662FA;stroke-width:0.25;stroke-miterlimit:10;}
	.st5{fill:#FFFFFF;}
	.st6{fill:none;stroke:#2662FA;stroke-width:0.25;stroke-miterlimit:10;}
	.st7{fill:#2662FA;}
</style>
<path class="st0" d="M16.6,1.5L11.4,4L0,38.4l5.5-4L16.6,1.5z"/>
<path class="st1" d="M5.6,34.4l-5.5,4h20.3l-2.9-4H5.6z"/>
<path class="st2" d="M23.3,29.2l-4.8,1.9l-1.1,3.3l2.9,4L23.3,29.2z"/>
<path class="st2" d="M22.7,1.4l-9.1,24l5-1.7L22.8,13V1.4H22.7z"/>
<linearGradient id="SVGID_1_" gradientUnits="userSpaceOnUse" x1="30.45" y1="1032.6072" x2="30.45" y2="1076.8073" gradientTransform="matrix(1 0 0 1 0 -1031.1072)">
	<stop  offset="0" style="stop-color:#1565C0"/>
	<stop  offset="1" style="stop-color:#1565C0"/>
</linearGradient>
<path class="st3" d="M22.7,13.1V1.5l15.5,44.2l-5.5-4L22.7,13.1z"/>
<path class="st1" d="M17.4,45.7h20.8l-5.5-4H13.6L17.4,45.7z"/>
<path class="st4" d="M68.8,39.5H52.7V7.7h4.2v27.6h11.9C68.8,35.3,68.8,39.5,68.8,39.5z"/>
<path class="st4" d="M74,16.3v11.5c0,1.2,0.2,2.3,0.5,3.3c0.4,1,0.9,1.9,1.6,2.7c0.7,0.7,1.5,1.3,2.5,1.7c0.9,0.4,2,0.6,3.1,0.6
	c1,0,2-0.2,2.9-0.7c0.9-0.4,1.7-1,2.4-1.8s1.2-1.7,1.7-2.8c0.4-1.1,0.6-2.3,0.6-3.6V16.3h4v23.2h-4V34c-0.9,1.7-2.1,3.1-3.5,4.1
	c-1.5,1-3.2,1.5-5.2,1.5c-1.5,0-2.9-0.3-4.2-0.8c-1.3-0.5-2.4-1.3-3.3-2.3s-1.7-2.1-2.2-3.5c-0.5-1.4-0.8-2.8-0.8-4.5V16.3H74z"/>
<path class="st4" d="M109.3,16.3l1.4,3.8l1.5-3.8h4.3l-3.7,9.3l3.3,9l7.6-18.3h4.3l-9.2,23.3h-4.3l-3.5-9.3l-3.8,9.3h-4.3l-8.8-23.3
	h4.3l6.8,17.6l3.6-9.1l-3.2-8.5C105.6,16.3,109.3,16.3,109.3,16.3z"/>
<path class="st4" d="M131,16.3l6.9,17.8l6.8-17.8h4.3l-11.9,30.1h-4l2.7-6.9l-9.2-23.3L131,16.3L131,16.3z"/>
<path class="st4" d="M154.6,12v23.4h3.5c1.6,0,3.1-0.3,4.5-0.9c1.4-0.6,2.6-1.4,3.7-2.5c1.1-1.1,1.9-2.3,2.5-3.7
	c0.6-1.4,0.9-2.9,0.9-4.5s-0.3-3.1-0.9-4.5c-0.6-1.4-1.4-2.7-2.5-3.7c-1-1.1-2.3-1.9-3.7-2.5c-1.4-0.6-2.9-0.9-4.5-0.9h-3.5V12z
	 M158.1,7.7c2.2,0,4.3,0.4,6.2,1.2c1.9,0.8,3.6,2,5,3.4c1.4,1.4,2.6,3.1,3.4,5.1c0.9,1.9,1.3,4,1.3,6.2s-0.4,4.3-1.3,6.2
	c-0.8,1.9-2,3.6-3.4,5c-1.4,1.4-3.1,2.5-5,3.4c-1.9,0.8-4,1.2-6.2,1.2h-7.7V7.7H158.1z"/>
<g>
	<polygon class="st5" points="179.3,16.3 186.2,34.1 193,16.3 197.3,16.3 185.4,46.4 181.4,46.4 184.1,39.6 175,16.3 	"/>
	<polygon class="st6" points="179.3,16.3 186.2,34.1 193,16.3 197.3,16.3 185.4,46.4 181.4,46.4 184.1,39.6 175,16.3 	"/>
</g>
<g>
	<path class="st5" d="M203.1,16.3v4c0.6-1.1,1.5-2.1,2.6-2.8c1.1-0.8,2.4-1.2,3.9-1.2v4c-0.8,0-1.6,0.2-2.4,0.5
		c-0.8,0.3-1.4,0.7-2,1.3c-0.6,0.5-1.1,1.1-1.5,1.8c-0.4,0.7-0.6,1.4-0.6,2.2v13.5h-4V16.3H203.1z"/>
	<path class="st6" d="M203.1,16.3v4c0.6-1.1,1.5-2.1,2.6-2.8c1.1-0.8,2.4-1.2,3.9-1.2v4c-0.8,0-1.6,0.2-2.4,0.5
		c-0.8,0.3-1.4,0.7-2,1.3c-0.6,0.5-1.1,1.1-1.5,1.8c-0.4,0.7-0.6,1.4-0.6,2.2v13.5h-4V16.3H203.1z"/>
</g>
<g>
	<path class="st5" d="M222.4,39.7c-1.6,0-3.2-0.3-4.6-0.9c-1.4-0.6-2.7-1.5-3.7-2.5s-1.9-2.3-2.5-3.7c-0.6-1.4-0.9-3-0.9-4.6
		c0-1.7,0.3-3.2,0.9-4.6c0.6-1.4,1.4-2.7,2.5-3.7c1-1.1,2.3-1.9,3.7-2.5s3-1,4.6-1s3.2,0.3,4.6,1c1.4,0.6,2.7,1.5,3.7,2.5
		s1.9,2.3,2.5,3.7c0.6,1.4,1,3,1,4.6s-0.3,3.2-1,4.6c-0.6,1.4-1.4,2.7-2.5,3.7c-1,1-2.3,1.9-3.7,2.5C225.6,39.4,224,39.7,222.4,39.7
		z M222.4,20.3c-1,0-2,0.2-2.9,0.6s-1.7,1-2.4,1.6s-1.2,1.5-1.6,2.4c-0.4,0.9-0.6,1.9-0.6,2.9s0.2,2,0.6,2.9
		c0.4,0.9,0.9,1.7,1.6,2.4c0.7,0.7,1.5,1.2,2.4,1.6c0.9,0.4,1.9,0.6,2.9,0.6s2-0.2,2.9-0.6c0.9-0.4,1.7-0.9,2.4-1.6
		c0.7-0.7,1.2-1.5,1.6-2.4c0.4-0.9,0.6-1.9,0.6-2.9s-0.2-2-0.6-2.9c-0.4-0.9-0.9-1.7-1.6-2.4c-0.7-0.7-1.5-1.2-2.4-1.6
		S223.4,20.3,222.4,20.3z"/>
	<path class="st7" d="M222.4,16.2c1.6,0,3.1,0.3,4.5,0.9s2.6,1.4,3.7,2.5c1,1,1.9,2.3,2.5,3.7c0.6,1.4,0.9,3,0.9,4.6
		s-0.3,3.1-0.9,4.5c-0.6,1.4-1.4,2.7-2.5,3.7c-1,1-2.3,1.9-3.7,2.5s-2.9,0.9-4.5,0.9s-3.2-0.3-4.6-0.9c-1.4-0.6-2.6-1.5-3.7-2.5
		c-1-1-1.9-2.3-2.5-3.7c-0.6-1.4-0.9-2.9-0.9-4.5s0.3-3.2,0.9-4.6c0.6-1.4,1.4-2.7,2.5-3.7c1-1.1,2.3-1.9,3.7-2.5
		C219.3,16.5,220.8,16.2,222.4,16.2 M222.4,35.6c1,0,2-0.2,2.9-0.6c0.9-0.4,1.8-1,2.5-1.7s1.2-1.5,1.6-2.4c0.4-0.9,0.6-1.9,0.6-3
		c0-1-0.2-2-0.6-3c-0.4-0.9-0.9-1.8-1.6-2.5c-0.7-0.7-1.5-1.2-2.5-1.7c-0.9-0.4-1.9-0.6-2.9-0.6s-2,0.2-3,0.6
		c-0.9,0.4-1.7,1-2.4,1.7s-1.2,1.5-1.7,2.5c-0.4,0.9-0.6,1.9-0.6,3c0,1,0.2,2,0.6,3c0.4,0.9,1,1.7,1.7,2.4s1.5,1.2,2.4,1.7
		C220.4,35.4,221.4,35.6,222.4,35.6 M222.4,15.9c-1.7,0-3.2,0.3-4.7,1c-1.4,0.6-2.7,1.5-3.8,2.6s-1.9,2.3-2.5,3.8
		c-0.6,1.4-0.9,3-0.9,4.7c0,1.6,0.3,3.2,0.9,4.6c0.6,1.4,1.5,2.7,2.5,3.8c1.1,1.1,2.3,1.9,3.8,2.6c1.4,0.6,3,0.9,4.7,0.9
		c1.6,0,3.2-0.3,4.6-0.9c1.4-0.6,2.7-1.5,3.8-2.6s1.9-2.3,2.5-3.8c0.6-1.4,1-3,1-4.6c0-1.7-0.3-3.2-1-4.7c-0.6-1.4-1.5-2.7-2.5-3.8
		c-1.1-1.1-2.3-2-3.8-2.6C225.6,16.3,224.1,15.9,222.4,15.9L222.4,15.9z M222.4,35.3c-1,0-2-0.2-2.9-0.6c-0.9-0.4-1.7-0.9-2.3-1.6
		c-0.7-0.7-1.2-1.5-1.6-2.3c-0.4-0.9-0.5-1.9-0.5-2.9s0.2-2,0.5-2.9c0.4-0.9,0.9-1.7,1.6-2.4c0.7-0.7,1.5-1.2,2.3-1.6
		c0.9-0.4,1.9-0.6,2.9-0.6s2,0.2,2.8,0.6c0.9,0.4,1.7,0.9,2.4,1.6s1.2,1.5,1.6,2.4c0.4,0.9,0.6,1.9,0.6,2.9s-0.2,2-0.6,2.9
		c-0.4,0.9-0.9,1.7-1.6,2.3c-0.7,0.7-1.5,1.2-2.4,1.6C224.4,35.1,223.4,35.3,222.4,35.3L222.4,35.3z"/>
</g>
</svg>
